<?xml version="1.0" encoding="iso-8859-1"?>
<!-- Generator: Adobe Illustrator 19.0.0, SVG Export Plug-In . SVG Version: 6.00 Build 0)  -->
<svg version="1.1" id="Layer_1" xmlns="http://www.w3.org/2000/svg" xmlns:xlink="http://www.w3.org/1999/xlink" x="0px" y="0px"
	 viewBox="0 0 496.2 496.2" style="enable-background:new 0 0 496.2 496.2;" xml:space="preserve">
<path style="fill:#FABC3D;" d="M496.2,248.1C496.2,111.1,385.1,0,248.1,0S0,111.1,0,248.1s111.1,248.1,248.1,248.1
	S496.2,385.1,496.2,248.1z"/>
<path style="fill:#774518;" d="M415.7,377.4c0,5.4-4.4,9.7-9.7,9.7H90.2c-5.4,0-9.7-4.4-9.7-9.7V178.1c0-5.4,4.4-9.7,9.7-9.7H406
	c5.4,0,9.7,4.4,9.7,9.7V377.4z"/>
<rect x="362.1" y="286.3" style="fill:#60320D;" width="44.9" height="81.9"/>
<g>
	<path style="fill:#774518;" d="M401,296.2h-33.1c-1.6,0-2.9-1.3-2.9-2.9s1.3-2.9,2.9-2.9H401c1.6,0,2.9,1.3,2.9,2.9
		S402.6,296.2,401,296.2z"/>
	<path style="fill:#774518;" d="M401,306.1h-33.1c-1.6,0-2.9-1.3-2.9-2.9s1.3-2.9,2.9-2.9H401c1.6,0,2.9,1.3,2.9,2.9
		C404,304.7,402.6,306.1,401,306.1z"/>
	<path style="fill:#774518;" d="M401,315.7h-33.1c-1.6,0-2.9-1.3-2.9-2.9s1.3-2.9,2.9-2.9H401c1.6,0,2.9,1.3,2.9,2.9
		S402.6,315.7,401,315.7z"/>
	<path style="fill:#774518;" d="M401,325.5h-33.1c-1.6,0-2.9-1.3-2.9-2.9s1.3-2.9,2.9-2.9H401c1.6,0,2.9,1.3,2.9,2.9
		S402.6,325.5,401,325.5z"/>
	<path style="fill:#774518;" d="M401,334.9h-33.1c-1.6,0-2.9-1.3-2.9-2.9s1.3-2.9,2.9-2.9H401c1.6,0,2.9,1.3,2.9,2.9
		S402.6,334.9,401,334.9z"/>
	<path style="fill:#774518;" d="M401,344.7h-33.1c-1.6,0-2.9-1.3-2.9-2.9s1.3-2.9,2.9-2.9H401c1.6,0,2.9,1.3,2.9,2.9
		C404,343.4,402.6,344.7,401,344.7z"/>
	<path style="fill:#774518;" d="M401,354.4h-33.1c-1.6,0-2.9-1.3-2.9-2.9s1.3-2.9,2.9-2.9H401c1.6,0,2.9,1.3,2.9,2.9
		C404,353.1,402.6,354.4,401,354.4z"/>
	<path style="fill:#774518;" d="M401,364.2h-33.1c-1.6,0-2.9-1.3-2.9-2.9s1.3-2.9,2.9-2.9H401c1.6,0,2.9,1.3,2.9,2.9
		C404,362.9,402.6,364.2,401,364.2z"/>
</g>
<path style="fill:#262625;" d="M104.5,201.2c0-7.8,6.3-14.1,14.1-14.1h222.7c7.8,0,14.1,6.3,14.1,14.1v152.9
	c0,7.8-6.3,14.1-14.1,14.1H118.6c-7.8,0-14.1-6.3-14.1-14.1V201.2z"/>
<path style="fill:#3A3A38;" d="M112.4,207.7c0-7.1,5.8-12.9,12.9-12.9h208.6c7.1,0,12.9,5.8,12.9,12.9v140.1
	c0,7.1-5.8,12.9-12.9,12.9H125.3c-7.1,0-12.9-5.8-12.9-12.9C112.4,347.8,112.4,207.7,112.4,207.7z"/>
<path style="fill:#D8D8D7;" d="M118.2,206.9c0-4.4,3.6-8,8-8h32.3c-13.7,7-31.5,12-40.3,53.6C118.2,252.5,118.2,206.9,118.2,206.9z"
	/>
<circle style="fill:#B79251;" cx="384.9" cy="208.3" r="18.8"/>
<circle style="fill:#3A3A38;" cx="384.9" cy="208.3" r="12.5"/>
<g>
	<path style="fill:#B79251;" d="M391.6,210.7l-9-9c-0.6-0.6-1.5-0.6-2.1,0l-2.2,2.2c-0.3,0.3-0.4,0.7-0.4,1.1c0,0.4,0.2,0.8,0.4,1.1
		l9,9c0.3,0.3,0.7,0.4,1.1,0.4s0.8-0.1,1.1-0.4l2.2-2.2c0.3-0.3,0.4-0.7,0.4-1.1S391.9,211,391.6,210.7z"/>
	<circle style="fill:#B79251;" cx="384.9" cy="255.4" r="18.8"/>
</g>
<circle style="fill:#3A3A38;" cx="384.9" cy="255.4" r="12.5"/>
<path style="fill:#B79251;" d="M382.6,262.1l9-9c0.6-0.6,0.6-1.5,0-2.1l-2.2-2.2c-0.3-0.3-0.7-0.4-1.1-0.4s-0.8,0.2-1.1,0.4l-9,9
	c-0.3,0.3-0.4,0.7-0.4,1.1s0.1,0.8,0.4,1.1l2.2,2.2c0.3,0.3,0.7,0.4,1.1,0.4C381.9,262.5,382.3,262.4,382.6,262.1z"/>
<g>
	<path style="fill:#3A3A38;" d="M309.9,78.2c-0.9-0.7-2.2-0.5-2.9,0.4l-60.8,80.1L185,78.6c-0.7-0.9-2-1.1-2.9-0.4s-1.1,2-0.4,2.9
		l62,84c0.6,0.8,1.5,1.2,2.3,1.2c0.1,0,0.2,0,0.2,0c0.1,0,0.2,0,0.2,0c0.9,0,1.8-0.4,2.3-1.2l61.6-84
		C311,80.2,310.9,78.9,309.9,78.2z"/>
	<circle style="fill:#3A3A38;" cx="308.7" cy="78.6" r="5.5"/>
	<circle style="fill:#3A3A38;" cx="182.4" cy="78.6" r="5.5"/>
</g>
<ellipse style="fill:#774518;" cx="248.1" cy="170.5" rx="26.1" ry="12"/>
<g>
</g>
<g>
</g>
<g>
</g>
<g>
</g>
<g>
</g>
<g>
</g>
<g>
</g>
<g>
</g>
<g>
</g>
<g>
</g>
<g>
</g>
<g>
</g>
<g>
</g>
<g>
</g>
<g>
</g>
</svg>
